<svg version="1.2" xmlns="http://www.w3.org/2000/svg" viewBox="0 0 42 42" width="42" height="42">
	<title>New Project</title>
	<defs>
		<filter x="-50%" y="-50%" width="200%" height="200%" id="f1" ><feDropShadow dx="-1.8369701987210297e-16" dy="3" stdDeviation="2.916666666666667" flood-color="#000000" flood-opacity=".2"/></filter>
	</defs>
	<style>
		.s0 { filter: url(#f1);fill: #d6e6de } 
		.s1 { fill: none } 
		.s2 { fill: #32835b } 
	</style>
	<circle id="Ellipse 115" class="s0" cx="21" cy="21" r="21"/>
	<g id="city-location">
		<path id="Path 6452" class="s1" d="m6.1 5.1h29.8v29.8h-29.8z"/>
		<path id="Path 6453" fill-rule="evenodd" class="s2" d="m29.7 18.8c1.3 0 2.4 1.1 2.4 2.4v7.5c0 1.3-1.1 2.4-2.4 2.4h-17.4c-1.3 0-2.4-1.1-2.4-2.4v-12.4c0-1.4 1.1-2.5 2.4-2.5h5v-1.4c0-0.7 0.2-1.3 0.7-1.8l2.1-2.1c0.5-0.5 1.3-0.5 1.8 0l2.1 2.1c0.5 0.5 0.7 1.1 0.7 1.8v6.4zm-14.8 7.4h-2.5v2.5h2.5zm0-5h-2.5v2.5h2.5zm0-5h-2.5v2.5h2.5zm7.4 9.9h-2.5v2.5h2.5zm0-5h-2.5v2.5h2.5zm0-4.9h-2.5v2.4h2.5zm0-4.9h-2.5v2.5h2.5zm7.4 14.8h-2.5v2.5h2.5zm0-5h-2.5v2.5h2.5z"/>
	</g>
</svg>