<svg xmlns="http://www.w3.org/2000/svg" width="21.527" height="22.7" viewBox="0 0 21.527 22.7">
  <path id="Home_icon" d="M6.819,19.294V16.151A1.458,1.458,0,0,1,8.282,14.7h2.954a1.468,1.468,0,0,1,1.035.425,1.447,1.447,0,0,1,.429,1.027v3.142a1.247,1.247,0,0,0,.366.891,1.265,1.265,0,0,0,.895.37h2.015a3.557,3.557,0,0,0,2.511-1.027,3.5,3.5,0,0,0,1.041-2.49V8.085a2.541,2.541,0,0,0-.92-1.955L11.751.695A3.183,3.183,0,0,0,7.693.768L.994,6.13A2.543,2.543,0,0,0,0,8.085v8.943a3.539,3.539,0,0,0,3.552,3.526H5.521A1.265,1.265,0,0,0,6.791,19.3Z" transform="translate(1 1.146)" fill="#32835b" stroke="#fff" stroke-width="2"/>
</svg>
