<svg version="1.2" xmlns="http://www.w3.org/2000/svg" viewBox="0 0 71 62" width="71" height="62">
	<title>New Project</title>
	<style>
		.s0 { fill: #32835b } 
	</style>
	<g id="customer">
		<path id="Path 3664" fill-rule="evenodd" class="s0" d="m23.4 12.3c0-6.7 5.4-12.1 12-12.1 6.7 0 12.1 5.4 12.1 12.1 0 6.6-5.4 12-12.1 12-6.6 0-12-5.4-12-12zm4.2 0c0 4.3 3.5 7.8 7.8 7.8 4.4 0 7.9-3.5 7.9-7.8 0-4.4-3.5-7.9-7.9-7.9-4.3 0-7.8 3.5-7.8 7.9z"/>
		<path id="Path 3665" fill-rule="evenodd" class="s0" d="m52.1 16.7c0-4.2 3.5-7.6 7.6-7.6 4.2 0 7.6 3.4 7.6 7.6 0 4.2-3.4 7.6-7.6 7.6-4.1 0-7.6-3.4-7.6-7.6zm4.2 0c0 1.9 1.5 3.4 3.4 3.4 1.9 0 3.5-1.5 3.5-3.4 0-1.9-1.6-3.5-3.5-3.5-1.9 0-3.4 1.6-3.4 3.5z"/>
		<path id="Path 3666" fill-rule="evenodd" class="s0" d="m70.8 38.3v14.9c0 2.3-1.9 4.2-4.2 4.2h-12.5c-0.3 2.5-2.3 4.4-4.9 4.4h-27.6c-2.5 0-4.6-1.9-4.8-4.4h-12.6c-2.3 0-4.1-1.8-4.1-4v-15.1c0-5.2 4.2-9.3 9.4-9.3h3.2c3.8 0 7 2.2 8.5 5.4 3.1-3.3 7.4-5.4 12.3-5.4h3.9c4.8 0 9.2 2.1 12.3 5.4 1.5-3.2 4.7-5.4 8.5-5.4h3.2c5.2 0 9.4 4.1 9.4 9.3zm-66.6 15h12.6c0-7.8-0.3-10 1.1-13.6v-1.4c0-2.9-2.3-5.2-5.2-5.2h-3.2c-2.9 0-5.3 2.3-5.3 5.2zm45.7-7.6c0-6.9-5.6-12.6-12.5-12.6h-3.9c-6.9 0-12.6 5.7-12.6 12.6v11.3c0 0.4 0.4 0.7 0.7 0.7h27.6c0.4 0 0.7-0.3 0.7-0.7zm16.7-7.4c0-2.8-2.3-5.2-5.2-5.2h-3.2c-2.9 0-5.2 2.4-5.2 5.2v1.4c1.4 3.6 1.1 5.8 1.1 13.6 13.3 0 12.5 0 12.5-0.1z"/>
		<path id="Path 3667" fill-rule="evenodd" class="s0" d="m3.6 16.7c0-4.2 3.4-7.6 7.5-7.6 4.2 0 7.6 3.4 7.6 7.6 0 4.2-3.4 7.6-7.6 7.6-4.1 0-7.5-3.4-7.5-7.6zm4.1 0c0 1.9 1.5 3.4 3.4 3.4 1.9 0 3.5-1.5 3.5-3.4 0-1.9-1.6-3.5-3.5-3.5-1.9 0-3.4 1.6-3.4 3.5z"/>
	</g>
</svg>