<svg version="1.2" xmlns="http://www.w3.org/2000/svg" viewBox="0 0 22 22" width="22" height="22">
	<title>New Project2</title>
	<style>
		.s0 { fill: #ebebeb;stroke: #707070 } 
		.s1 { fill: #ebebeb;stroke: #55565a } 
	</style>
	<g id="Alternate_icon">
		<circle id="Ellipse 156" class="s0" cx="11" cy="11" r="11"/>
		<path id="apps" fill-rule="evenodd" class="s1" d="m8.8 5.2c0.8 0 1.5 0.6 1.5 1.4v2.2c0 0.8-0.7 1.5-1.5 1.5h-2.2c-0.8 0-1.4-0.7-1.4-1.5v-2.2c0-0.8 0.6-1.4 1.4-1.4zm6.6 0c0.8 0 1.4 0.6 1.4 1.4v2.2c0 0.8-0.6 1.5-1.4 1.5h-2.2c-0.8 0-1.5-0.7-1.5-1.5v-2.2c0-0.8 0.7-1.4 1.5-1.4zm-10.2 8c0-0.8 0.7-1.5 1.5-1.5h2.2c0.8 0 1.4 0.7 1.4 1.5v2.2c0 0.8-0.6 1.4-1.4 1.4h-2.2c-0.8 0-1.5-0.6-1.5-1.4zm10.2-1.5c0.8 0 1.5 0.7 1.5 1.5v2.1c0 0.8-0.7 1.5-1.5 1.5h-2.2c-0.8 0-1.4-0.7-1.4-1.5v-2.1c0-0.8 0.6-1.5 1.4-1.5z"/>
	</g>
</svg>