<svg version="1.2" xmlns="http://www.w3.org/2000/svg" viewBox="0 0 10 16" width="10" height="16">
	<title>New Project2</title>
	<style>
		.s0 { fill: #32835b } 
	</style>
	<g id="Group 26">
		<path id="Path 7" class="s0" d="m0.1 4.9l4.3-4.3q0 0 0 0c0.2-0.1 0.4-0.1 0.5 0l4.3 4.3q0.1 0.1 0.1 0.2c0 0.2-0.1 0.4-0.3 0.4h-2.1v5.4c0 0.3-0.2 0.4-0.4 0.5h-3.7c-0.1 0-0.2-0.3-0.2-0.5v-5.4h-2.3q-0.1 0-0.2-0.1c-0.1-0.2-0.1-0.4 0-0.5z"/>
		<path id="Path 8" class="s0" d="m6.8 12.4c0 0.2-0.1 0.3-0.3 0.3h-3.7c-0.2 0-0.3-0.1-0.3-0.3 0-0.2 0.1-0.4 0.3-0.4h3.7c0.2 0 0.3 0.2 0.3 0.4z"/>
		<path id="Path 9" class="s0" d="m6.8 13.7c0 0.2-0.1 0.4-0.3 0.4h-3.7c-0.2 0-0.3-0.2-0.3-0.4 0-0.1 0.1-0.3 0.3-0.3h3.7c0.2 0 0.3 0.2 0.3 0.3z"/>
		<path id="Path 10" class="s0" d="m6.8 15.1c0 0.2-0.1 0.3-0.3 0.3h-3.7c-0.2 0-0.3-0.1-0.3-0.3 0-0.2 0.1-0.3 0.3-0.3h3.7c0.2 0 0.3 0.1 0.3 0.3z"/>
	</g>
</svg>