<svg version="1.2" xmlns="http://www.w3.org/2000/svg" viewBox="0 0 10 16" width="10" height="16">
	<title>New Project2</title>
	<style>
		.s0 { fill: #f6696e } 
	</style>
	<g id="Group 26">
		<path id="Path 7" class="s0" d="m9.2 11.1l-4.3 4.2q0 0 0 0c-0.2 0.1-0.4 0.1-0.5 0l-4.3-4.2q-0.1-0.1-0.1-0.3c0-0.2 0.1-0.3 0.3-0.3h2.1v-5.5c0-0.2 0.2-0.4 0.4-0.4h3.7c0.1 0 0.2 0.2 0.2 0.4v5.5h2.3q0.1 0 0.2 0.1c0.1 0.1 0.1 0.3 0 0.5z"/>
		<path id="Path 8" class="s0" d="m2.5 3.6c0-0.2 0.1-0.4 0.3-0.4h3.7c0.2 0 0.3 0.2 0.3 0.4 0 0.1-0.1 0.3-0.3 0.3h-3.7c-0.2 0-0.3-0.2-0.3-0.3z"/>
		<path id="Path 9" class="s0" d="m2.5 2.2c0-0.2 0.1-0.3 0.3-0.3h3.7c0.2 0 0.3 0.1 0.3 0.3 0 0.2-0.1 0.3-0.3 0.3h-3.7c-0.2 0-0.3-0.1-0.3-0.3z"/>
		<path id="Path 10" class="s0" d="m2.5 0.8c0-0.2 0.1-0.3 0.3-0.3h3.7c0.2 0 0.3 0.1 0.3 0.3 0 0.2-0.1 0.4-0.3 0.4h-3.7c-0.2 0-0.3-0.2-0.3-0.4z"/>
	</g>
</svg>