<svg version="1.2" xmlns="http://www.w3.org/2000/svg" viewBox="0 0 42 42" width="42" height="42">
	<title>New Project2</title>
	<defs>
		<filter x="-50%" y="-50%" width="200%" height="200%" id="f1" ><feDropShadow dx="0" dy="0" stdDeviation="2.916666666666667" flood-color="#000000" flood-opacity=".2"/></filter>
	</defs>
	<style>
		.s0 { filter: url(#f1);fill: #f5e6c3 } 
		.s1 { fill: #ab811e } 
	</style>
	<g id="AFS_Icon">
		<g id="Group 3546">
			<circle id="Ellipse 95" class="s0" cx="21" cy="21" r="21"/>
		</g>
		<path id="Path 5690" fill-rule="evenodd" class="s1" d="m8.5 15.5l1.1-0.2c4.2-0.8 8-2.9 10.9-6 2.9 3.1 6.7 5.2 10.9 6l1.1 0.2c-0.8 6.7-4.2 12.9-9.5 17.2l-2.5 2-2-1.5c-5.6-4.3-9.2-10.7-10-17.7zm14.1 4h1c1 0 1.8 0.8 1.8 1.8 0 1-0.8 1.8-1.8 1.8h-1.8c-0.6 0-1.1-0.3-1.5-0.7-0.3-0.5-0.4-1.1-0.3-1.6l-1.3-0.4c-0.3 1-0.1 2 0.5 2.8 0.6 0.8 1.5 1.3 2.6 1.3h1.8c1.8 0 3.2-1.4 3.2-3.2 0-1.8-1.4-3.2-3.2-3.2h-1zm-5.2 5h1v-1.4h-1c-1 0-1.8-0.8-1.8-1.8 0-1 0.8-1.8 1.8-1.8h1.9c0.5 0 1.1 0.3 1.4 0.7 0.3 0.5 0.4 1.1 0.3 1.6l1.3 0.4c0.3-1 0.1-2-0.5-2.8-0.6-0.8-1.5-1.3-2.6-1.3h-1.8c-1.8 0-3.2 1.4-3.2 3.2 0 1.8 1.4 3.2 3.2 3.2z"/>
	</g>
</svg>