<svg xmlns="http://www.w3.org/2000/svg" xmlns:xlink="http://www.w3.org/1999/xlink" width="60" height="60" viewBox="0 0 60 60">
  <defs>
    <filter id="Ellipse_107" x="0" y="0" width="60" height="60" filterUnits="userSpaceOnUse">
      <feOffset dy="3" input="SourceAlpha"/>
      <feGaussianBlur stdDeviation="3" result="blur"/>
      <feFlood flood-opacity="0.161"/>
      <feComposite operator="in" in2="blur"/>
      <feComposite in="SourceGraphic"/>
    </filter>
  </defs>
  <g id="Avaya_Icon" transform="translate(-1558 -752)">
    <g transform="matrix(1, 0, 0, 1, 1558, 752)" filter="url(#Ellipse_107)">
      <circle id="Ellipse_107-2" data-name="Ellipse 107" cx="21" cy="21" r="21" transform="translate(9 6)" fill="#b9cfdc"/>
    </g>
    <g id="Group_3551" data-name="Group 3551" transform="translate(1577.449 765.821)">
      <path id="Path_5697" data-name="Path 5697" d="M311.879,99.222a.125.125,0,0,0-.125.125V121.4a.125.125,0,0,0,.125.125h12.855a.125.125,0,0,0,.125-.125V99.8l-.577-.577Zm1.435,1.155H323.94a.115.115,0,0,1,0,.23H313.314a.115.115,0,1,1,0-.23Zm0,.459H323.94a.115.115,0,0,1,0,.23H313.314a.115.115,0,1,1,0-.23Zm0,.458H323.94a.115.115,0,0,1,0,.23H313.314a.115.115,0,1,1,0-.23Zm0,.459H323.94a.115.115,0,0,1,0,.23H313.314a.115.115,0,1,1,0-.23Zm0,.459H323.94a.115.115,0,0,1,0,.23H313.314a.115.115,0,1,1,0-.23Zm0,.459H323.94a.115.115,0,0,1,0,.23H313.314a.115.115,0,1,1,0-.23Zm0,.458H323.94a.115.115,0,0,1,0,.23H313.314a.115.115,0,1,1,0-.23Zm0,.459H323.94a.115.115,0,0,1,0,.23H313.314a.115.115,0,1,1,0-.23Zm0,.46H323.94a.115.115,0,0,1,0,.23H313.314a.115.115,0,1,1,0-.23Zm0,.459H323.94a.115.115,0,0,1,0,.23H313.314a.115.115,0,1,1,0-.23Zm0,.458H323.94a.115.115,0,0,1,0,.23H313.314a.115.115,0,1,1,0-.23Zm0,.459H323.94a.115.115,0,0,1,0,.23H313.314a.115.115,0,1,1,0-.23Zm0,.458H323.94a.115.115,0,0,1,0,.23H313.314a.115.115,0,1,1,0-.23Zm0,.458h.61a.115.115,0,1,1,0,.229h-.61a.115.115,0,1,1,0-.229Zm1.132.019h9.469a.125.125,0,0,1,.125.125v3.666a.125.125,0,0,1-.125.125H313.332a.125.125,0,0,1-.125-.125v-2.574a10.276,10.276,0,0,1,1.239-1.216Zm-1.132.44h.192a.115.115,0,0,1,0,.23h-.192a.115.115,0,1,1,0-.23Zm2.165.657a.125.125,0,0,0-.125.125v1.681a.125.125,0,0,0,.125.125h6.747a.125.125,0,0,0,.125-.125v-1.681a.125.125,0,0,0-.125-.125Zm-1.21,5.38h1.058a.125.125,0,0,1,.125.125v.66a.125.125,0,0,1-.125.125H314.27a.125.125,0,0,1-.125-.125v-.66A.125.125,0,0,1,314.27,112.832Zm1.784,0h1.058a.125.125,0,0,1,.125.125v.66a.125.125,0,0,1-.125.125h-1.058a.125.125,0,0,1-.125-.125v-.66A.125.125,0,0,1,316.054,112.832Zm1.773,0h1.058a.125.125,0,0,1,.125.125v.66a.125.125,0,0,1-.125.125h-1.058a.125.125,0,0,1-.125-.125v-.66A.125.125,0,0,1,317.827,112.832Zm4.274,0h1.058a.125.125,0,0,1,.125.125v.66a.125.125,0,0,1-.125.125H322.1a.125.125,0,0,1-.125-.125v-.66A.125.125,0,0,1,322.1,112.832Zm-7.831,1.671h1.058a.125.125,0,0,1,.125.125v.66a.125.125,0,0,1-.125.125h-1.058a.125.125,0,0,1-.125-.125v-.66A.125.125,0,0,1,314.269,114.5Zm1.784,0h1.058a.125.125,0,0,1,.125.125v.66a.125.125,0,0,1-.125.125h-1.058a.125.125,0,0,1-.125-.125v-.66A.125.125,0,0,1,316.054,114.5Zm1.773,0h1.058a.125.125,0,0,1,.125.125v.66a.125.125,0,0,1-.125.125h-1.058a.125.125,0,0,1-.125-.125v-.66A.125.125,0,0,1,317.827,114.5Zm2.8,1.637h2.536a.125.125,0,0,1,.125.125v.66a.125.125,0,0,1-.125.125h-2.536a.125.125,0,0,1-.125-.125v-.66A.125.125,0,0,1,320.623,116.14Zm-6.354.012h1.058a.125.125,0,0,1,.125.125v.66a.125.125,0,0,1-.125.125h-1.058a.124.124,0,0,1-.125-.125v-.66A.125.125,0,0,1,314.269,116.151Zm1.784,0h1.058a.125.125,0,0,1,.125.125v.66a.125.125,0,0,1-.125.125h-1.058a.124.124,0,0,1-.125-.125v-.66A.125.125,0,0,1,316.053,116.151Zm1.773,0h1.058a.125.125,0,0,1,.125.125v.66a.125.125,0,0,1-.125.125h-1.058a.124.124,0,0,1-.125-.125v-.66A.125.125,0,0,1,317.826,116.151Zm2.8,1.612h2.536a.125.125,0,0,1,.125.125v.66a.125.125,0,0,1-.125.125h-2.536a.125.125,0,0,1-.125-.125v-.66A.125.125,0,0,1,320.623,117.764Zm-6.354.059h1.058a.125.125,0,0,1,.125.125v.66a.125.125,0,0,1-.125.125h-1.058a.124.124,0,0,1-.125-.125v-.66A.125.125,0,0,1,314.269,117.822Zm1.784,0h1.058a.125.125,0,0,1,.125.125v.66a.125.125,0,0,1-.125.125h-1.058a.124.124,0,0,1-.125-.125v-.66A.125.125,0,0,1,316.053,117.822Zm1.773,0h1.058a.125.125,0,0,1,.125.125v.66a.125.125,0,0,1-.125.125h-1.058a.124.124,0,0,1-.125-.125v-.66A.125.125,0,0,1,317.826,117.822Zm2.8,1.589h2.536a.125.125,0,0,1,.125.125v.66a.125.125,0,0,1-.125.125h-2.536a.124.124,0,0,1-.125-.125v-.66A.125.125,0,0,1,320.622,119.411Zm-6.354.059h1.058a.125.125,0,0,1,.125.125v.66a.125.125,0,0,1-.125.125h-1.058a.125.125,0,0,1-.125-.125v-.66A.125.125,0,0,1,314.269,119.47Zm3.558,0h1.058a.125.125,0,0,1,.125.125v.66a.125.125,0,0,1-.125.125h-1.058a.125.125,0,0,1-.125-.125v-.66A.125.125,0,0,1,317.826,119.47Z" transform="translate(-303.757 -98.451)" fill="#5087a7"/>
      <path id="Path_5698" data-name="Path 5698" d="M217.52,87.887h4.59a.72.72,0,0,1,.722.722v23.556a.72.72,0,0,1-.722.721h-4.59a.72.72,0,0,1-.722-.721V88.609A.72.72,0,0,1,217.52,87.887Z" transform="translate(-215.264 -87.887)" fill="#5087a7"/>
      <path id="Path_5699" data-name="Path 5699" d="M194.379,99.223h.839a.125.125,0,0,1,.125.125V121.4a.125.125,0,0,1-.125.125h-.839a.125.125,0,0,1-.125-.125V99.348A.125.125,0,0,1,194.379,99.223Z" transform="translate(-194.254 -98.452)" fill="#5087a7"/>
    </g>
  </g>
</svg>
