<svg version="1.2" xmlns="http://www.w3.org/2000/svg" viewBox="0 0 42 42" width="42" height="42">
	<title>New Project2</title>
	<defs>
		<filter x="-50%" y="-50%" width="200%" height="200%" id="f1" ><feDropShadow dx="-1.8369701987210297e-16" dy="3" stdDeviation="2.916666666666667" flood-color="#000000" flood-opacity=".2"/></filter>
	</defs>
	<style>
		.s0 { filter: url(#f1);fill: #b9cfdc } 
		.s1 { fill: #5087a7 } 
	</style>
	<g id="Avaya_Icon">
		<circle id="Ellipse 107" class="s0" cx="21" cy="21" r="21"/>
		<g id="Group 3551">
			<path id="Path 5697" fill-rule="evenodd" class="s1" d="m31 8.6l0.6 0.6v21.6q-0.1 0.1-0.2 0.1h-12.8q-0.1 0-0.2-0.1v-22.1q0.1-0.1 0.2-0.1zm-11.1 1.3q0 0.1 0.1 0.1h10.6q0.1 0 0.1-0.1 0-0.1-0.1-0.2h-10.6q-0.1 0.1-0.1 0.2zm0 0.4q0 0.1 0.1 0.1h10.6q0.1 0 0.1-0.1 0-0.1-0.1-0.1h-10.6q-0.1 0-0.1 0.1zm0 0.5q0 0.1 0.1 0.1h10.6q0.1 0 0.1-0.1 0-0.1-0.1-0.1h-10.6q-0.1 0-0.1 0.1zm0 0.4q0 0.1 0.1 0.2h10.6q0.1-0.1 0.1-0.2 0-0.1-0.1-0.1h-10.6q-0.1 0-0.1 0.1zm0 0.5q0 0.1 0.1 0.1h10.6q0.1 0 0.1-0.1 0-0.1-0.1-0.1h-10.6q-0.1 0-0.1 0.1zm0 0.5q0 0.1 0.1 0.1h10.6q0.1 0 0.1-0.1 0-0.1-0.1-0.2h-10.6q-0.1 0.1-0.1 0.2zm0 0.4q0 0.1 0.1 0.1h10.6q0.1 0 0.1-0.1 0-0.1-0.1-0.1h-10.6q-0.1 0-0.1 0.1zm0 0.5q0 0.1 0.1 0.1h10.6q0.1 0 0.1-0.1 0-0.1-0.1-0.1h-10.6q-0.1 0-0.1 0.1zm0 0.4q0 0.1 0.1 0.1h10.6q0.1 0 0.1-0.1 0-0.1-0.1-0.1h-10.6q-0.1 0-0.1 0.1zm0 0.5q0 0.1 0.1 0.1h10.6q0.1 0 0.1-0.1 0-0.1-0.1-0.1h-10.6q-0.1 0-0.1 0.1zm0 0.4q0 0.2 0.1 0.2h10.6q0.1 0 0.1-0.2 0-0.1-0.1-0.1h-10.6q-0.1 0-0.1 0.1zm0 0.5q0 0.1 0.1 0.1h10.6q0.1 0 0.1-0.1 0-0.1-0.1-0.1h-10.6q-0.1 0-0.1 0.1zm0 0.5q0 0.1 0.1 0.1h10.6q0.1 0 0.1-0.1 0-0.1-0.1-0.2h-10.6q-0.1 0.1-0.1 0.2zm0 0.4q0 0.1 0.1 0.1h0.6q0.1 0 0.1-0.1 0-0.1-0.1-0.1h-0.6q-0.1 0-0.1 0.1zm0 1.1v2.6q0 0.1 0.1 0.1h10.6q0.1 0 0.1-0.1v-3.7q0-0.1-0.1-0.1h-9.5c0 0-1.2 1.2-1.2 1.2zm0-0.6q0 0.1 0.1 0.1h0.2q0.1 0 0.1-0.1 0-0.1-0.1-0.1h-0.2q-0.1 0-0.1 0.1zm9 0.5q0.1 0 0.1 0.1v1.7q0 0.1-0.1 0.2h-6.7q-0.1-0.1-0.2-0.2v-1.7q0.1-0.1 0.2-0.1zm-8.1 5.5v0.7q0 0.1 0.1 0.1h1.1q0.1 0 0.1-0.1v-0.7q0-0.1-0.1-0.1h-1.1q-0.1 0-0.1 0.1zm1.8 0v0.7q0 0.1 0.1 0.1h1.1q0.1 0 0.1-0.1v-0.7q0-0.1-0.1-0.1h-1.1q-0.1 0-0.1 0.1zm1.7 0v0.7q0.1 0.1 0.2 0.1h1q0.1 0 0.2-0.1v-0.7q-0.1-0.1-0.2-0.1h-1q-0.1 0-0.2 0.1zm4.3 0v0.7q0 0.1 0.1 0.1h1.1q0.1 0 0.1-0.1v-0.7q0-0.1-0.1-0.1h-1.1q-0.1 0-0.1 0.1zm-7.8 1.7v0.7q0 0.1 0.1 0.1h1.1q0.1 0 0.1-0.1v-0.7q0-0.1-0.1-0.1h-1.1q-0.1 0-0.1 0.1zm1.8 0v0.7q0 0.1 0.1 0.1h1.1q0.1 0 0.1-0.1v-0.7q0-0.1-0.1-0.1h-1.1q-0.1 0-0.1 0.1zm1.7 0v0.7q0.1 0.1 0.2 0.1h1q0.1 0 0.2-0.1v-0.7q-0.1-0.1-0.2-0.1h-1q-0.1 0-0.2 0.1zm2.8 1.6v0.7q0 0.1 0.2 0.1h2.5q0.1 0 0.1-0.1v-0.7q0-0.1-0.1-0.1h-2.5q-0.2 0-0.2 0.1zm-6.3 0v0.7q0 0.1 0.1 0.1h1.1q0.1 0 0.1-0.1v-0.7q0-0.1-0.1-0.1h-1.1q-0.1 0-0.1 0.1zm1.8 0v0.7q0 0.1 0.1 0.1h1.1q0.1 0 0.1-0.1v-0.7q0-0.1-0.1-0.1h-1.1q-0.1 0-0.1 0.1zm1.7 0v0.7q0.1 0.1 0.2 0.1h1q0.1 0 0.2-0.1v-0.7q-0.1-0.1-0.2-0.1h-1q-0.1 0-0.2 0.1zm2.8 1.7v0.6q0 0.1 0.2 0.1h2.5q0.1 0 0.1-0.1v-0.6q0-0.2-0.1-0.2h-2.5q-0.2 0-0.2 0.2zm-6.3 0v0.7q0 0.1 0.1 0.1h1.1q0.1 0 0.1-0.1v-0.7q0-0.1-0.1-0.1h-1.1q-0.1 0-0.1 0.1zm1.8 0v0.7q0 0.1 0.1 0.1h1.1q0.1 0 0.1-0.1v-0.7q0-0.1-0.1-0.1h-1.1q-0.1 0-0.1 0.1zm1.7 0v0.7q0.1 0.1 0.2 0.1h1q0.1 0 0.2-0.1v-0.7q-0.1-0.1-0.2-0.1h-1q-0.1 0-0.2 0.1zm2.8 1.6v0.7q0 0.1 0.2 0.1h2.5q0.1 0 0.1-0.1v-0.7q0-0.1-0.1-0.1h-2.5q-0.2 0-0.2 0.1zm-6.3 0.1v0.6q0 0.1 0.1 0.2h1.1q0.1-0.1 0.1-0.2v-0.6q0-0.1-0.1-0.2h-1.1q-0.1 0.1-0.1 0.2zm3.5 0v0.6q0.1 0.1 0.2 0.2h1q0.1-0.1 0.2-0.2v-0.6q-0.1-0.1-0.2-0.2h-1q-0.1 0.1-0.2 0.2z"/>
			<rect id="Path 5698" class="s1" x="12" y="7.8" width="6" height="25" rx=".7"></rect>
			<path id="Path 5699" class="s1" d="m10.6 8.6h0.8q0.1 0 0.1 0.1v22.1q0 0.1-0.1 0.1h-0.8q-0.1 0-0.2-0.1v-22.1q0.1-0.1 0.2-0.1z"/>
		</g>
	</g>
</svg>