<svg version="1.2" xmlns="http://www.w3.org/2000/svg" viewBox="0 0 22 22" width="22" height="22">
	<title>New Project2</title>
	<style>
		.s0 { fill: #ebebeb;stroke: #707070 } 
		.s1 { fill: #55565a } 
	</style>
	<circle id="Ellipse 169" class="s0" cx="11" cy="11" r="11"/>
	<g id="Group 4453">
		<path id="Path 6444" fill-rule="evenodd" class="s1" d="m14.5 12.4c-0.9 1-2.2 1.5-3.5 1.5-1.3 0-2.6-0.5-3.6-1.5-0.9-0.9-1.4-2.2-1.4-3.5 0-1.3 0.5-2.6 1.4-3.6 1-0.9 2.3-1.4 3.6-1.4 1.3 0 2.6 0.5 3.6 1.4 0.9 1 1.4 2.3 1.4 3.6 0 1.3-0.5 2.6-1.5 3.5zm-6.7-0.3c0.9 0.8 2 1.3 3.2 1.3 1.2 0 2.3-0.5 3.2-1.3 0.8-0.9 1.3-2 1.3-3.2 0-1.2-0.5-2.3-1.3-3.2-0.9-0.8-2-1.3-3.2-1.3-1.2 0-2.3 0.5-3.2 1.3-0.8 0.9-1.3 2-1.3 3.2 0 1.2 0.5 2.3 1.3 3.2z"/>
		<path id="Path 6445" fill-rule="evenodd" class="s1" d="m12.2 15.7q0.1 0.1 0.1 0.3v2.4q0 0.2-0.1 0.4-0.2 0.1-0.4 0.1h-1.6q-0.2 0-0.4-0.1-0.1-0.2-0.1-0.4v-2.4q0-0.2 0.1-0.4 0.2-0.1 0.4-0.1v-0.9c-1.5-0.2-2.8-0.9-3.7-2-0.9-1.2-1.4-2.6-1.3-4.1 0.1-1.5 0.8-2.9 1.8-3.9 1.1-1 2.5-1.5 4-1.5 1.5 0 2.9 0.5 4 1.5 1 1 1.7 2.4 1.8 3.9 0.1 1.5-0.4 2.9-1.3 4.1-0.9 1.1-2.2 1.8-3.7 2v0.9q0.2 0 0.4 0.2zm-4.9-3.1c1 1 2.3 1.6 3.7 1.6 1.4 0 2.7-0.6 3.7-1.6 1-1 1.6-2.3 1.6-3.7 0-1.4-0.6-2.8-1.6-3.8-1-0.9-2.3-1.5-3.7-1.5-1.4 0-2.7 0.6-3.7 1.5-1 1-1.6 2.4-1.6 3.8 0 1.4 0.6 2.7 1.6 3.7zm3.4 2.9h0.6v-0.8q-0.2 0-0.3 0-0.1 0-0.3 0zm1.1 2.9v-2.4h-1.6v2.4z"/>
		<path id="Path 6446" fill-rule="evenodd" class="s1" d="m10.7 6q0 0.1 0 0.2v5.4q0 0.1 0 0.2c-0.3 0.3-0.8 0.5-1.3 0.5-0.8 0-1.5-0.6-1.6-1.3q-0.3-0.2-0.5-0.5-0.3-0.3-0.3-0.7 0-0.5 0.3-0.8-0.3-0.3-0.3-0.8 0-0.4 0.3-0.7 0.2-0.3 0.5-0.5 0-0.1 0-0.2c0-0.7 0.7-1.3 1.6-1.3 0.5-0.1 1 0.1 1.3 0.5zm-0.5 0.3q-0.3-0.3-0.8-0.3c-0.6 0-1 0.4-1 0.8q0 0.1 0 0.2l0.3 0.3h0.5v0.6h-0.6q-0.1 0-0.2-0.1l-0.3-0.3q-0.2 0-0.4 0.2-0.1 0.3-0.1 0.5 0 0.3 0.1 0.5h0.9v0.5h-0.7q0 0 0 0c-0.2 0.1-0.3 0.4-0.3 0.6q0 0.2 0.1 0.4 0.2 0.2 0.4 0.3l0.4-0.2q0-0.1 0.1-0.1h0.6v0.6h-0.5l-0.3 0.2q0 0.4 0.3 0.6 0.3 0.2 0.7 0.2 0.5 0 0.8-0.3z"/>
		<path id="Path 6447" fill-rule="evenodd" class="s1" d="m11.3 12v-2q0-0.1 0.1-0.2 0.1-0.1 0.2 0 0.1 0 0.2 0 0.4 0 0.6-0.3 0.2-0.3 0.2-0.6 0-0.4-0.2-0.6-0.2-0.3-0.6-0.3-0.1 0-0.2 0-0.1 0-0.2 0-0.1-0.1-0.1-0.3v-2c0-0.1 0.1-0.2 0.2-0.2q0.1 0 0.3 0 0.4-0.1 0.9 0.1c0.1 0 0.2 0.1 0.2 0.2v0.4q0 0.1 0 0.2 0.3 0.1 0.4 0.2 0.1 0 0.2 0l0.3-0.2c0.1-0.1 0.2 0 0.3 0q0.6 0.7 0.9 1.6c0 0.1-0.1 0.3-0.2 0.3l-0.4 0.3q0.1 0.3 0 0.6l0.4 0.3c0.1 0 0.2 0.1 0.2 0.2q-0.3 0.9-0.9 1.6c-0.1 0.1-0.2 0.1-0.3 0.1l-0.3-0.2q-0.1-0.1-0.2 0-0.1 0.1-0.4 0.2 0 0.1 0 0.2v0.3c0 0.2-0.1 0.3-0.2 0.3q-0.4 0.1-0.8 0.1-0.1 0-0.1 0-0.1 0-0.3 0c-0.1 0-0.2-0.1-0.2-0.3zm0.5-0.2q0 0 0.1 0 0.2 0 0.4-0.1v-0.1q0-0.2 0.1-0.4 0.1-0.2 0.3-0.3 0.2 0 0.3-0.1 0.2-0.2 0.4-0.2 0.2 0 0.3 0.1l0.2 0.1q0.3-0.4 0.5-1l-0.4-0.2q-0.1-0.1-0.1-0.3 0.1-0.4 0-0.8 0-0.2 0.1-0.3l0.4-0.2q-0.2-0.6-0.5-1h-0.2q-0.1 0.1-0.3 0.1-0.2 0-0.4-0.1-0.1-0.1-0.3-0.2-0.2-0.1-0.3-0.2-0.1-0.2-0.1-0.4v-0.2q-0.2 0-0.5 0v1.4q0 0 0 0c0.4 0 0.7 0.2 1 0.5 0.2 0.3 0.4 0.6 0.4 1 0 0.4-0.2 0.7-0.4 1-0.3 0.3-0.6 0.4-1 0.4z"/>
		<path id="Path 6448" class="s1" d="m9.4 7.3h0.5v0.6h-0.5z"/>
		<path id="Path 6449" class="s1" d="m9.4 10.2h0.5v0.6h-0.5z"/>
		<path id="Path 6450" class="s1" d="m8.9 8.7h0.5v0.5h-0.5z"/>
	</g>
</svg>