<svg version="1.2" xmlns="http://www.w3.org/2000/svg" viewBox="0 0 47 51" width="47" height="51">
	<title>New Project</title>
	<style>
		.s0 { fill: #707070 } 
	</style>
	<path id="arrow (1)" class="s0" d="m22.1 50.4q-1.6 0-2.8-1.2l-2.4-2.4q-1.3-1.2-1.3-2.9 0-1.7 1.3-2.9l9.3-9.4h-22.5q-1.6 0-2.7-1.2-1-1.2-1-2.9v-4q0-1.7 1-2.9 1.1-1.2 2.7-1.2h22.5l-9.3-9.4q-1.3-1.2-1.3-2.9 0-1.7 1.3-2.9l2.4-2.4q1.2-1.2 2.8-1.2 1.7 0 2.9 1.2l20.8 20.8q1.2 1.1 1.2 2.9 0 1.7-1.2 2.9l-20.8 20.8q-1.2 1.2-2.9 1.2z"/>
</svg>