<svg version="1.2" xmlns="http://www.w3.org/2000/svg" viewBox="0 0 81 103" width="81" height="103">
	<title>New Project</title>
	<style>
		.s0 { opacity: .5;fill: #d6e6de } 
	</style>
	<g id="Group 3553" style="opacity: .3">
		<path id="Rectangle 77" class="s0" d="m80.5 102.3h-17.3v-17.4h17.3z"/>
		<path id="Rectangle 78" class="s0" d="m80.5 81.2h-17.3v-17.3h17.3z"/>
		<path id="Rectangle 85" class="s0" d="m59.4 81.2h-17.3v-17.3h17.3z"/>
		<path id="Rectangle 79" class="s0" d="m80.5 60.2h-17.3v-17.4h17.3z"/>
		<path id="Rectangle 84" class="s0" d="m59.4 60.2h-17.3v-17.4h17.3z"/>
		<path id="Rectangle 88" class="s0" d="m38.4 60.2h-17.3v-17.4h17.3z"/>
		<path id="Rectangle 80" class="s0" d="m80.5 39.1h-17.3v-17.3h17.3z"/>
		<path id="Rectangle 83" class="s0" d="m59.4 39.1h-17.3v-17.3h17.3z"/>
		<path id="Rectangle 89" class="s0" d="m38.4 39.1h-17.3v-17.3h17.3z"/>
		<path id="Rectangle 92" class="s0" d="m17.3 39.1h-17.3v-17.3h17.3z"/>
		<path id="Rectangle 81" class="s0" d="m80.5 18.1h-17.3v-17.4h17.3z"/>
		<path id="Rectangle 82" class="s0" d="m59.4 18.1h-17.3v-17.4h17.3z"/>
		<path id="Rectangle 90" class="s0" d="m38.4 18.1h-17.3v-17.4h17.3z"/>
		<path id="Rectangle 93" class="s0" d="m17.3 18.1h-17.3v-17.4h17.3z"/>
	</g>
</svg>