<svg xmlns="http://www.w3.org/2000/svg" width="22" height="22" viewBox="0 0 22 22">
  <g id="Chart_icon" transform="translate(-920 -114)">
    <g id="Path_6451" data-name="Path 6451" transform="translate(920 114)" fill= "#c6b8bf">
      <path d="M 11 21.5 C 5.210279941558838 21.5 0.5 16.78972053527832 0.5 11 C 0.5 5.210279941558838 5.210279941558838 0.5 11 0.5 C 16.78972053527832 0.5 21.5 5.210279941558838 21.5 11 C 21.5 16.78972053527832 16.78972053527832 21.5 11 21.5 Z" stroke="none"/>
      <path d="M 11 1 C 5.485979080200195 1 1 5.485979080200195 1 11 C 1 16.51401901245117 5.485979080200195 21 11 21 C 16.51401901245117 21 21 16.51401901245117 21 11 C 21 5.485979080200195 16.51401901245117 1 11 1 M 11 0 C 17.07513046264648 0 22 4.924869537353516 22 11 C 22 17.07513046264648 17.07513046264648 22 11 22 C 4.924869537353516 22 0 17.07513046264648 0 11 C 0 4.924869537353516 4.924869537353516 0 11 0 Z" stroke="none" fill="#704e5f"/>
    </g>
    <path id="graph" d="M12.565,18.56H10.641A.639.639,0,0,0,10,19.2v3.9a.639.639,0,0,0,.641.641h1.924a.639.639,0,0,0,.641-.641V19.2A.639.639,0,0,0,12.565,18.56Zm4.347-1.5H14.988a.639.639,0,0,0-.641.641V23.1a.639.639,0,0,0,.641.641h1.924a.639.639,0,0,0,.641-.641V17.7A.671.671,0,0,0,16.912,17.063ZM21.235,13.5H19.311a.639.639,0,0,0-.641.641V23.1a.639.639,0,0,0,.641.641h1.924a.639.639,0,0,0,.641-.641V14.118A.634.634,0,0,0,21.235,13.5Z" transform="translate(915.062 106.381)" fill="#704e5f"/>
  </g>
</svg>
