<svg version="1.2" xmlns="http://www.w3.org/2000/svg" viewBox="0 0 80 22" width="80" height="22">
	<title>New Project2</title>
	<style>
		.s0 { fill: none;stroke: #ab811e } 
		.s1 { fill: #ab811e } 
		.s2 { fill: none;stroke: #ab811e;stroke-linecap: round } 
	</style>
	<g id="Group 4470">
		<circle id="Ellipse 119" class="s0" cx="69" cy="11" r="11"/>
		<circle id="Ellipse 120" class="s0" cx="40" cy="11" r="11"/>
		<circle id="Ellipse 121" class="s0" cx="11" cy="11" r="11"/>
		<path id="Path 5682" class="s1" d="m74.3 11q0 0.3-0.2 0.6l-3.3 3.2q-0.2 0.3-0.5 0.3-0.4 0-0.6-0.3c-0.3-0.3-0.3-0.8 0-1.1l1.9-1.9h-7.1c-0.5 0-0.8-0.4-0.8-0.8 0-0.4 0.3-0.8 0.8-0.8h7.1l-1.9-1.9c-0.3-0.3-0.3-0.8 0-1.1 0.3-0.3 0.8-0.3 1.1 0l3.3 3.2q0.2 0.3 0.2 0.6z"/>
		<g id="Group 3564">
			<path id="Path 5700" class="s2" d="m6.1 15.6l4.9-2.8-1.6-2.7 6.5-3.7"/>
			<path id="Path 5701" class="s2" d="m12.5 5.5l3.4 0.9-0.9 3.4"/>
		</g>
		<path id="graph" class="s1" d="m37.3 11.6v3.9c0 0.3-0.3 0.6-0.7 0.6h-1.9c-0.4 0-0.6-0.3-0.6-0.6v-3.9c0-0.4 0.2-0.7 0.6-0.7h1.9c0.4 0 0.7 0.3 0.7 0.7zm4.3-1.5v5.4c0 0.3-0.3 0.6-0.6 0.6h-2c-0.3 0-0.6-0.3-0.6-0.6v-5.4c0-0.4 0.3-0.7 0.6-0.7h2c0.3 0 0.6 0.3 0.6 0.7zm4.3-3.6v9c0 0.3-0.2 0.6-0.6 0.6h-1.9c-0.4 0-0.7-0.3-0.7-0.6v-9c0-0.3 0.3-0.6 0.7-0.6h1.9c0.4 0 0.6 0.3 0.6 0.6z"/>
	</g>
</svg>