<svg version="1.2" xmlns="http://www.w3.org/2000/svg" viewBox="0 0 18 18" width="18" height="18">
	<title>New Project</title>
	<style>
		.s0 { fill: #c3534d } 
	</style>
	<path id="Path 6456" class="s0" d="m16.8 13.8q0 0 0.1 0.1c0.9 0.9 0.8 2.4-0.1 3.3-1 0.8-2.4 0.8-3.3-0.1l-4.5-4.5c-0.2-0.2-0.4-0.2-0.6 0l-4.5 4.5c-0.9 0.9-2.4 0.9-3.3 0-0.9-0.9-0.9-2.4 0-3.3l4.5-4.5c0.2-0.2 0.2-0.4 0-0.6l-4.5-4.5q-0.1-0.1-0.1-0.1c-0.9-0.9-0.8-2.4 0.1-3.3 1-0.9 2.4-0.8 3.3 0.1l4.5 4.5c0.2 0.2 0.4 0.2 0.6 0l4.5-4.5c0.9-1 2.4-1 3.3 0 0.9 0.9 0.9 2.3 0 3.3l-4.5 4.5c-0.2 0.2-0.2 0.4 0 0.6z"/>
</svg>