<svg version="1.2" xmlns="http://www.w3.org/2000/svg" viewBox="0 0 42 42" width="42" height="42">
	<title>New Project</title>
	<defs>
		<filter x="-50%" y="-50%" width="200%" height="200%" id="f1" ><feDropShadow dx="-1.8369701987210297e-16" dy="3" stdDeviation="2.916666666666667" flood-color="#000000" flood-opacity=".2"/></filter>
	</defs>
	<style>
		.s0 { filter: url(#f1);fill: #d6e6de } 
		.s1 { fill: #32835b;stroke: #32835b } 
	</style>
	<g id="Revenue_Icon_main">
		<circle id="Ellipse 114" class="s0" cx="21" cy="21" r="21"/>
		<g id="Group 3541">
			<path id="Path 4681" fill-rule="evenodd" class="s1" d="m34.9 18.5v8.9c0 1.9-2.9 3.4-6.6 3.4-1.9 0-3.6-0.4-4.8-1.1-1.9 1.1-5 1.3-7.4 0.8-0.9 0.4-1.9 0.7-3 0.7-3.3 0-6-2.7-6-6 0-3 2.2-5.5 5.1-5.9v-5.1c0-1.9 2.9-3.4 6.6-3.4 3.7 0 6.6 1.5 6.6 3.4v1.3q1.3-0.3 2.9-0.4c3.7 0 6.6 1.5 6.6 3.4zm-15.8 7.1c0.9 0 1.8-0.1 2.6-0.3v-3.7c-1.1 0.3-2.3 0.3-3.5 0.3 0.6 1 0.9 2.2 0.9 3.3 0 0.1 0 0.3 0 0.4zm9.2-9.8c-2 0-5.7 0.7-6 2.5-0.4 2 3.6 3 6 3 3.2 0 5.9-1.3 5.9-2.8 0-1.4-2.7-2.7-5.9-2.7zm-15.4-1.6q-0.1 0.2 0 0.3c0.4 1.5 3.2 2.2 4.8 2.3 2.3 0.3 7.1-0.5 7.1-2.6 0-1.5-2.8-2.8-6-2.8-3.2 0-5.9 1.2-5.9 2.8zm0 1.4v2.9q0 0.4 0.2 0.7c1.6-0.1 3.4 0.7 4.6 2.1 1.3 0.1 2.7 0 4-0.3 0-2.5 0-2.5 0.1-2.9 0-0.4 0.3-0.8 0.6-1.1-1.4 0.5-3.2 0.6-4.7 0.5-1.7-0.2-3.7-0.7-4.8-1.9zm0.2 15c2.7 0 5.1-2.1 5.4-4.8v-0.1q0-0.3 0-0.5c0-3-2.5-5.5-5.5-5.4-2.9 0.1-5.2 2.4-5.2 5.4 0 2.9 2.3 5.3 5.3 5.4zm8.6-3.3v-1.4q-1.3 0.4-2.7 0.4c-0.3 1.5-1.1 2.7-2.2 3.6 2 0.3 4.3 0.1 6.1-0.6-0.6-0.4-1.2-1.2-1.2-2zm12.6-2.9c-1.1 1.1-3.3 1.9-6 1.9-2.7 0-4.9-0.8-6-1.9v2.9c0 2 4 2.8 6 2.8 3.3 0 6-1.3 6-2.8zm-6-2.5c-2 0-4.7-0.4-6-1.9v2.9c0 1.5 2.8 2.8 6 2.8 3.3 0 6-1.3 6-2.8v-2.9c-1.3 1.5-4.1 1.9-6 1.9z"/>
			<path id="Path 4685" class="s1" d="m14.5 26.3c0 0.7-0.4 1.3-1.1 1.4v0.8h-0.6v-0.8c-0.7-0.2-1.1-0.8-1.1-1.4h0.6c0 0.4 0.4 0.8 0.8 0.8 0.4 0 0.8-0.4 0.8-0.8 0-0.5-0.4-0.8-0.8-0.8-0.8 0-1.4-0.7-1.4-1.5 0-0.7 0.5-1.3 1.1-1.4v-0.8h0.6v0.8c0.7 0.1 1.1 0.7 1.1 1.4h-0.6c0-0.4-0.4-0.8-0.8-0.8-0.4 0-0.8 0.4-0.8 0.8 0 0.4 0.4 0.8 0.8 0.8 0.8 0 1.4 0.7 1.4 1.5z"/>
		</g>
	</g>
</svg>