<svg version="1.2" xmlns="http://www.w3.org/2000/svg" viewBox="0 0 42 42" width="42" height="42">
	<title>New Project2</title>
	<defs>
		<filter x="-50%" y="-50%" width="200%" height="200%" id="f1" ><feDropShadow dx="-1.8369701987210297e-16" dy="3" stdDeviation="2.916666666666667" flood-color="#000000" flood-opacity=".2"/></filter>
	</defs>
	<style>
		.s0 { filter: url(#f1);fill: #c6b8bf } 
		.s1 { fill: #704e5f } 
	</style>
	<g id="Customer_service_icon">
		<circle id="Ellipse 107" class="s0" cx="21" cy="21" r="21"/>
		<g id="Group 3550">
			<circle id="Path 5691" class="s1" cx="11.4" cy="15.8" r="3.8"/>
			<path id="Path 5692" class="s1" d="m14.4 26l-0.4 2.9q-1.3 0.1-2.7 0.1-2.7 0-5.1-0.5c-0.5-0.1-0.7-0.5-0.7-0.9l0.4-3.3c0.2-2.1 2-3.6 4-3.6h2.9c1.4 0 2.7 0.8 3.4 1.9-0.9 0.9-1.6 2.1-1.8 3.4z"/>
			<circle id="Path 5693" class="s1" cx="30.7" cy="15.8" r="3.8"/>
			<path id="Path 5694" class="s1" d="m28 28.9l-0.4-2.9c-0.1-1.3-0.8-2.5-1.8-3.4 0.7-1.1 2-1.9 3.4-1.9h2.9c2 0 3.7 1.5 4 3.5l0.4 3.3c0 0.5-0.2 0.9-0.7 1q-2.4 0.5-5.1 0.5-1.4 0-2.7-0.1z"/>
			<path id="Path 5695" class="s1" d="m26.5 26.2l0.3 3.3c0.1 0.4-0.2 0.8-0.6 0.9q-2.5 0.5-5.2 0.5-2.7 0-5.2-0.5c-0.4-0.1-0.6-0.5-0.6-0.9l0.4-3.3c0.2-2.1 1.9-3.6 4-3.6h2.8c2.1 0 3.8 1.5 4.1 3.6z"/>
			<circle id="Path 5696" class="s1" cx="21" cy="17.8" r="3.8"/>
		</g>
	</g>
</svg>