<svg version="1.2" xmlns="http://www.w3.org/2000/svg" viewBox="0 0 22 22" width="22" height="22">
	<title>New Project2</title>
	<style>
		.s0 { fill: #ebebeb;stroke: #707070 } 
		.s1 { fill: #55565a } 
	</style>
	<g id="Export_icon">
		<circle id="Ellipse 161" class="s0" cx="11" cy="11" r="11"/>
		<g id="noun-export-4642853">
			<path id="Path 6334" class="s1" d="m16.8 5.6v4.3q0 0.2-0.2 0.3-0.2 0.1-0.3 0-0.2-0.1-0.2-0.3v-3.5l-4.8 4.9q-0.2 0.1-0.3 0.1-0.2 0-0.3-0.1-0.1-0.1-0.1-0.3 0-0.1 0.1-0.3l4.9-4.8h-3.5q-0.2 0-0.3-0.2-0.1-0.1 0-0.3 0.1-0.2 0.3-0.2h4.3q0.2 0 0.2 0.1 0.1 0 0.2 0.1 0 0.1 0 0.2z"/>
			<path id="Path 6335" class="s1" d="m15.2 10.4q0.2 0.1 0.2 0.2v4.7c0 0.4-0.2 0.8-0.5 1.1-0.3 0.2-0.7 0.4-1 0.4h-7.2c-0.4 0-0.8-0.2-1.1-0.4-0.2-0.3-0.4-0.7-0.4-1.1v-7.2c0-0.4 0.2-0.7 0.4-1 0.3-0.3 0.7-0.5 1.1-0.5h4.7q0.2 0.1 0.3 0.2 0.1 0.2 0 0.4-0.1 0.2-0.3 0.2h-4.7q-0.3 0-0.6 0.2-0.2 0.2-0.2 0.5v7.2q0 0.3 0.2 0.6 0.3 0.2 0.6 0.2h7.2q0.3 0 0.5-0.2 0.2-0.3 0.2-0.6v-4.7q0-0.1 0.1-0.2 0.1-0.1 0.3-0.1 0.1 0 0.2 0.1z"/>
		</g>
	</g>
</svg>