<svg version="1.2" xmlns="http://www.w3.org/2000/svg" viewBox="0 0 42 42" width="42" height="42">
	<title>New Project</title>
	<style>
		tspan { white-space:pre } 
		.s0 { fill: #d6e6de } 
		.s1 { fill: #32835b } 
	</style>
	<circle id="Ellipse 115" class="s0" cx="21" cy="21" r="21"/>
	<g id="Group 4177">
		<path id="Path 6313" fill-rule="evenodd" class="s1" d="m10.5 9.6h15.8v22.8h-15.8zm1.2 21.6h13.3v-20.3h-13.3z"/>
		<path id="Path 6314" fill-rule="evenodd" class="s1" d="m31.5 29.1l-1.8 3.3-1.8-3.3v-19.5h3.6zm-1.2-18.3h-1.1v17.9l0.5 1 0.6-1z"/>
		<path id="Path 6315" class="s1" d="m16.5 14.2l0.5-0.4 0.8 0.9-0.5 0.5-2.6 2.2-1.2-1.4-0.5-0.5 1-0.8 0.4 0.4 0.5 0.5z"/>
		<path id="Path 6316" class="s1" d="m16.5 19.6l0.5-0.4 0.8 0.9-0.5 0.5-2.6 2.2-1.2-1.4-0.5-0.5 1-0.9 0.4 0.5 0.5 0.5z"/>
		<path id="Path 6317" class="s1" d="m16.5 25l0.5-0.4 0.8 0.9-0.5 0.4-2.6 2.3-1.2-1.4-0.5-0.5 1-0.9 0.4 0.5 0.5 0.5z"/>
		<path id="Path 6318" class="s1" d="m22.5 14.1h0.7v1.3h-3.9v-1.3z"/>
		<path id="Path 6319" class="s1" d="m22.5 16h0.7v1.3h-3.9v-1.3z"/>
		<path id="Path 6320" class="s1" d="m22.5 19.2h0.7v1.3h-3.9v-1.3z"/>
		<path id="Path 6321" class="s1" d="m22.5 21.1h0.7v1.3h-3.9v-1.3z"/>
		<path id="Path 6322" class="s1" d="m22.5 26h0.7v1.3h-3.9v-1.3z"/>
	</g>
</svg>