<svg version="1.2" xmlns="http://www.w3.org/2000/svg" viewBox="0 0 22 22" width="22" height="22">
	<title>New Project2</title>
	<style>
		.s0 { fill: #ebebeb;stroke: #707070 } 
		.s1 { fill: #55565a } 
	</style>
	<g id="Percentage_icon">
		<circle id="Ellipse 157" class="s0" cx="11" cy="11" r="11"/>
		<path id="Path 6326" fill-rule="evenodd" class="s1" d="m14.2 5.6l-5 11q0 0.2-0.2 0.2h-0.9c-0.2 0-0.4-0.2-0.3-0.4l5-11q0-0.2 0.2-0.2h0.9c0.2 0 0.4 0.2 0.3 0.4zm2.6 8.2c0 1.3-1.1 2.4-2.4 2.4-1.4 0-2.5-1.1-2.5-2.4 0-1.4 1.1-2.5 2.5-2.5 1.3 0 2.4 1.1 2.4 2.5zm-1.2 0c0-0.7-0.6-1.3-1.2-1.3-0.7 0-1.3 0.6-1.3 1.3 0 0.6 0.6 1.2 1.3 1.2 0.6 0 1.2-0.6 1.2-1.2zm-8-3.1c-1.3 0-2.4-1.1-2.4-2.5 0-1.3 1.1-2.4 2.4-2.4 1.4 0 2.5 1.1 2.5 2.4 0 1.4-1.1 2.5-2.5 2.5zm1.3-2.5c0-0.6-0.6-1.2-1.3-1.2-0.6 0-1.2 0.6-1.2 1.2 0 0.7 0.6 1.3 1.2 1.3 0.7 0 1.3-0.6 1.3-1.3z"/>
	</g>
</svg>