<svg version="1.2" xmlns="http://www.w3.org/2000/svg" viewBox="0 0 58 74" width="58" height="74">
	<title>New Project</title>
	<style>
		.s0 { fill: #32835b } 
	</style>
	<g id="policeman">
		<g id="Group 3444">
			<g id="Group 3443">
				<path id="Path 3652" fill-rule="evenodd" class="s0" d="m57.2 58.7v11.8c0 1.9-1.5 3.5-3.5 3.5h-49.9c-1.9 0-3.5-1.6-3.5-3.5v-5.4c0-0.6 0.5-1.1 1.1-1.1 0.6 0 1.1 0.5 1.1 1.1v5.4c0 0.7 0.6 1.3 1.3 1.3h4.4v-8.8c0-0.6 0.4-1 1-1 0.6 0 1.1 0.4 1.1 1v8.8h13.6l2.1-14.9-1.4-1.7-0.4 0.1q-0.5 0.3-1 0.3c-0.8 0-1.6-0.4-2-1.1l-5-7-6.3 1.2q-0.4 0.1-0.9 0.3c0.5 0.6 0.8 1.3 0.9 2 0.1 1-0.2 1.9-0.8 2.7l-1.2 1.4c-0.6 0.8-1.4 1.2-2.4 1.3q-0.2 0.1-0.4 0.1c-0.8 0-1.5-0.3-2.2-0.8q-0.4 1.5-0.4 3v1.4c0 0.6-0.5 1.1-1.1 1.1-0.6 0-1.1-0.5-1.1-1.1v-1.4c0-2.3 0.6-4.5 1.8-6.5q0 0 0.1 0 0-0.2 0.1-0.3 0.1-0.1 0.2-0.2 0-0.1 0.1-0.2 0.1-0.1 0.2-0.3 0 0 0 0 0-0.1 0.1-0.1 0.1-0.1 0.2-0.3 0 0 0.1-0.1 0.1-0.1 0.2-0.3 0.1 0 0.1-0.1 0.1-0.1 0.2-0.2 0.1-0.1 0.2-0.1 0-0.1 0.1-0.2c1.5-1.5 3.3-2.6 5.4-3.2q0 0 0.1 0l9.8-1.8c0.5-0.1 0.9-0.1 1.4 0.1 0.3-0.4 0.6-1 0.6-1.5v-1.8q-1-0.6-1.8-1.3c-2.5-2.1-4-5.1-4.3-8.4-1.8-0.1-3.2-1.6-3.2-3.4v-2.5c0-1 0.4-2 1.2-2.6v-5.8c-3.6-1.7-4.3-3.8-4.3-5.2 0-2.5 2.3-5.6 6-8.1 2.3-1.6 7.3-4.2 13.9-4.2 6.6 0 11.5 2.6 13.9 4.2 3.7 2.5 6 5.6 6 8.1 0 1.4-0.8 3.5-4.3 5.2v5.8c0.7 0.6 1.2 1.6 1.2 2.6v2.5c0 1.8-1.4 3.3-3.2 3.4-0.3 3.3-1.9 6.3-4.3 8.4q-0.9 0.7-1.8 1.3v1.8c0 0.5 0.2 1.1 0.6 1.5q0.6-0.3 1.3-0.1 0 0 0.1 0c0 0 9.8 1.8 9.8 1.8q0 0 0.1 0c2 0.6 3.9 1.7 5.4 3.2q0 0.1 0.1 0.2 0.1 0 0.1 0.1 0.1 0.1 0.2 0.2 0.1 0.1 0.1 0.1 0.2 0.2 0.3 0.3 0 0.1 0.1 0.1 0.1 0.2 0.2 0.3 0 0 0 0.1 0.1 0 0.1 0 0.1 0.2 0.2 0.3 0 0.1 0.1 0.2 0.1 0.1 0.1 0.2 0.1 0.1 0.2 0.3 0 0 0 0c1.2 2 1.8 4.2 1.8 6.5zm-49.5-7.4c0-0.4-0.2-0.7-0.5-1l-0.2-0.2q-0.8 0.5-1.4 1.2 0 0 0 0-0.2 0.2-0.3 0.3-0.1 0.1-0.1 0.1-0.2 0.2-0.4 0.4 0 0.1 0 0.1-0.2 0.2-0.3 0.3 0 0.1-0.1 0.2-0.1 0.2-0.3 0.4 0 0 0 0-0.1 0.2-0.3 0.5l0.5 0.4c0.3 0.2 0.6 0.3 1 0.3 0.4-0.1 0.7-0.2 0.9-0.5l1.2-1.5c0.3-0.3 0.4-0.7 0.3-1zm47.4 19.2v-11.8q0-1.5-0.5-3c-0.6 0.5-1.4 0.8-2.2 0.8q-0.2 0-0.4-0.1c-0.9-0.1-1.8-0.5-2.4-1.3l-1.2-1.4c-1.1-1.4-1-3.4 0.2-4.7q-0.5-0.2-1-0.3l-6.2-1.2-5 7c-0.5 0.7-1.3 1.1-2.1 1.1q-0.5 0-1-0.3l-0.3-0.1-1.5 1.7 2.1 14.9h13.6v-8.8c0-0.6 0.5-1 1.1-1 0.6 0 1.1 0.4 1.1 1v8.8h4.3c0.8 0 1.4-0.6 1.4-1.3zm-24.2-18.5l3.3 1.3c0.1 0.1 0.3 0.1 0.4-0.1l4.4-6.1-1.1-0.2q-0.1 0-0.2 0l-0.3 0.2q0 0 0 0zm4.2-5.8c-0.6-0.7-1-1.7-1-2.7v-0.7q-2.5 1.1-5.3 1.1 0 0-0.1 0 0 0 0 0-2.8 0-5.3-1.1v0.7c0 1-0.4 2-1 2.7l6.3 4.8zm-6.3 7.2l-2.1 0.9 1 1.1h2.3l0.9-1.1zm-15.5-40.3c0-1.5 1-2.8 2.4-3.2 3.1-0.9 7.8-1.9 12.4-1.9q0.1 0 0.1 0c5.4 0 10.9 1.2 13.7 1.9 1.5 0.4 2.5 1.7 2.5 3.2v2c1.4-0.8 2.2-1.8 2.2-2.7 0-2-2.6-4.6-5.1-6.3-2.1-1.4-6.6-3.9-12.7-3.9-6 0-10.5 2.5-12.7 3.9-2.4 1.7-5 4.3-5 6.3 0 0.9 0.8 1.9 2.2 2.7zm5.3 6.6q0 0 0 0.1c2.4 0.9 5.9 1.6 10.2 1.6 4.4 0 7.9-0.7 10.2-1.6q0-0.1 0.1-0.1 0.9-0.3 1.6-0.8 0 0 0 0 0.1-0.1 0.2-0.1 0.1-0.1 0.1-0.1 0.1 0 0.2-0.1 0 0 0.1-0.1 0 0 0.1-0.1 0 0 0.1-0.1 0 0 0.1-0.1 0 0 0.1-0.1 0 0 0 0 0 0 0.1 0h-2.4c-0.6 0-1.1-0.5-1.1-1.1 0-0.6 0.5-1.1 1.1-1.1h2.9v-2.7c0-0.6-0.4-1.1-0.9-1.2-2.7-0.7-8.1-1.8-13.2-1.8q0 0-0.1 0c-4.4 0-8.9 0.9-11.8 1.8-0.5 0.1-0.9 0.6-0.9 1.1v2.8h18.7c0.6 0 1.1 0.5 1.1 1.1 0 0.6-0.5 1.1-1.1 1.1h-18.2q0 0 0 0 0.1 0 0.1 0 0 0.1 0.1 0.1 0.1 0.1 0.1 0.1 0 0.1 0.1 0.1 0.1 0.1 0.1 0.1 0.1 0.1 0.1 0.1 0.1 0.1 0.2 0.1 0 0 0.1 0.1 0.1 0 0.2 0.1 0 0 0 0 0.7 0.5 1.6 0.8zm-3.2 0.8v2.5c0.5 0.1 1.1 0.2 1.7 0.6v-2.2q-1-0.4-1.7-0.9zm25.2 3.1c0.6-0.4 1.2-0.5 1.7-0.6v-2.5q-0.7 0.5-1.7 0.9zm-11.8 18.2c3-0.1 5.6-1.1 8-3.1 2.2-1.9 3.5-4.8 3.5-7.8 0.1-0.6 0.5-1.1 1.1-1.1h0.9c0.7 0 1.2-0.5 1.2-1.2v-2.5c0-0.4-0.2-0.7-0.5-0.9-0.2 0-0.5 0-0.8 0.1q0 0 0 0-0.1 0-0.1 0.1 0 0 0 0-0.1 0-0.2 0 0 0 0 0-0.1 0-0.1 0.1 0 0 0 0-0.1 0-0.2 0 0 0 0 0-0.1 0.1-0.1 0.1 0 0 0 0-0.1 0.1-0.1 0.1-0.1 0-0.1 0 0 0-0.1 0.1 0 0 0 0-0.1 0-0.1 0.1 0 0 0 0-0.1 0.1-0.2 0.1 0 0.1-0.1 0.1 0 0 0 0 0 0.1-0.1 0.1 0 0 0 0-0.1 0-0.1 0.1 0 0 0 0-0.1 0-0.1 0 0 0-0.1 0 0 0.1-0.1 0.1 0 0 0 0-0.1 0-0.3 0 0 0 0 0 0 0-0.1 0 0 0 0 0 0 0 0 0-0.2 0-0.3 0 0 0 0 0-0.1 0-0.1 0 0 0-0.1 0 0 0-0.1-0.1c-0.5-0.2-0.9-0.7-0.9-1.3v-2.6c-2.8 0.8-6.2 1.3-9.6 1.3-3.3 0-6.7-0.5-9.5-1.3v2.6c0 0.6-0.4 1.1-0.9 1.3q-0.1 0.1-0.2 0.1 0 0 0 0-0.1 0-0.1 0 0 0 0 0-0.1 0-0.2 0 0 0 0 0 0 0-0.1 0 0 0 0 0 0 0 0 0-0.1 0-0.1 0-0.1 0-0.1 0 0 0-0.1 0 0 0 0 0-0.1 0-0.1 0 0 0-0.1 0 0 0-0.1-0.1 0 0 0 0 0 0-0.1 0 0 0 0 0-0.1-0.1-0.1-0.1 0 0 0 0-0.1 0-0.1-0.1 0 0-0.1 0 0 0-0.1-0.1 0 0-0.1-0.1 0 0 0 0-0.1-0.1-0.2-0.2-0.1 0-0.1 0c-0.6-0.4-1.3-0.5-1.7-0.5-0.2 0.2-0.4 0.5-0.4 0.9v2.5c0 0.7 0.5 1.2 1.2 1.2h0.9c0.5 0 1 0.5 1 1.1 0.1 3 1.4 5.9 3.6 7.8 2.3 2 5 3 7.9 3.1zm-2.1 10.3l-6.5-4.9q0 0 0 0l-0.3-0.2q-0.1 0-0.2 0l-1.1 0.2 4.4 6.1c0.1 0.1 0.3 0.2 0.5 0.1zm4.8 19.9l-2-14.2h-1.4l-1.9 14.2zm18.7-19.6l1.1 1.5c0.3 0.3 0.6 0.5 1 0.5 0.4 0.1 0.7 0 1-0.3l0.5-0.3q-0.2-0.3-0.3-0.6 0 0 0 0-0.2-0.2-0.3-0.4-0.1 0-0.1-0.1-0.1-0.2-0.3-0.4 0 0 0 0-0.2-0.2-0.4-0.4 0-0.1-0.1-0.1-0.1-0.2-0.3-0.4 0 0 0 0-0.7-0.6-1.4-1.1l-0.2 0.2c-0.6 0.5-0.7 1.3-0.2 1.9z"/>
			</g>
		</g>
		<g id="Group 3446">
			<g id="Group 3445">
				<path id="Path 3653" fill-rule="evenodd" class="s0" d="m45.3 63.7v3.1c0 0.9-0.8 1.7-1.7 1.7h-5.7c-1 0-1.8-0.8-1.8-1.7v-3.1c0-0.9 0.8-1.7 1.8-1.7h5.7c0.9 0 1.7 0.8 1.7 1.7zm-2.1 2.7v-2.3h-4.9v2.3z"/>
			</g>
		</g>
		<g id="Group 3448">
			<g id="Group 3447">
				<path id="Path 3654" fill-rule="evenodd" class="s0" d="m21.5 63.7v3.1c0 0.9-0.8 1.7-1.8 1.7h-5.7c-1 0-1.8-0.8-1.8-1.7v-3.1c0-0.9 0.8-1.7 1.8-1.7h5.7c1 0 1.8 0.8 1.8 1.7zm-2.2 0.4h-4.9v2.3h4.9z"/>
			</g>
		</g>
	</g>
</svg>