<svg version="1.2" xmlns="http://www.w3.org/2000/svg" viewBox="0 0 291 344" width="291" height="344">
	<title>New Project2</title>
	<style>
		.s0 { fill: #32835b } 
	</style>
	<g id="Performance_BG" style="opacity: .1">
		<path id="Path 6311" fill-rule="evenodd" class="s0" d="m214.9 206.2c2 2 4.7 3.2 7.6 3.2h16.5c-2.4 21.1-11.9 40.8-27 55.8-15 15.1-34.7 24.6-55.8 27v-16.5c0-3.9-2.1-7.4-5.4-9.3-3.3-2-7.4-2-10.8 0-3.3 1.9-5.3 5.4-5.3 9.3v16.5c-21.2-2.4-40.9-11.9-55.9-27-15.1-15-24.6-34.7-27-55.8h16.5c2.9 0 5.6-1.2 7.6-3.2 2.1-2 3.2-4.8 3.2-7.6 0-2.9-1.1-5.6-3.2-7.6-2-2-4.7-3.2-7.6-3.2h-16.5c3.6-30.9 22.1-58 49.6-72.5 27.6-14.6 60.5-14.6 88 0 27.5 14.5 46.1 41.6 49.6 72.5h-16.5c-2.9 0-5.6 1.2-7.6 3.2-2 2-3.2 4.7-3.2 7.6 0 2.8 1.2 5.6 3.2 7.6zm-54.4 2.2c3.3-5.1 3.8-11.5 1.3-17-2.4-5.6-7.5-9.5-13.5-10.4l-28.5-38c-2.2-3-6.4-3.8-9.6-1.8-3.2 1.9-4.3 6-2.7 9.3l20.9 42.7c-1.9 5.4-0.9 11.4 2.4 16.1 3.4 4.6 8.9 7.3 14.6 7.3 6.1 0 11.7-3.1 15.1-8.2z"/>
		<path id="Path 6312" fill-rule="evenodd" class="s0" d="m256.3 104.6c24 28.4 36.3 64.9 34.2 102-2 37.1-18.2 72-45.2 97.5-27 25.6-62.7 39.8-99.9 39.8-37.1 0-72.9-14.2-99.9-39.8-27-25.5-43.2-60.4-45.2-97.5-2-37.1 10.2-73.6 34.3-102 24-28.3 58-46.4 94.9-50.4v-25.8h-9.9c-3.8 0-7.4-1.5-10.1-4.1-2.6-2.7-4.1-6.3-4.1-10.1 0-3.8 1.5-7.4 4.1-10 2.7-2.7 6.3-4.2 10.1-4.2h51.6c5.1 0 9.8 2.7 12.3 7.1 2.5 4.4 2.5 9.8 0 14.2-2.5 4.4-7.2 7.1-12.3 7.1h-9.9v25.8c36.9 4 70.9 22.1 95 50.4zm-25.2 179.7c22.7-22.8 35.5-53.6 35.5-85.7 0-32.1-12.8-63-35.5-85.7-22.7-22.7-53.5-35.5-85.7-35.5-32.1 0-63 12.8-85.7 35.5-22.7 22.7-35.5 53.6-35.5 85.7 0 32.1 12.8 63 35.5 85.7 22.7 22.7 53.6 35.5 85.7 35.5 32.2 0 63-12.8 85.7-35.5z"/>
	</g>
</svg>