<svg version="1.2" xmlns="http://www.w3.org/2000/svg" viewBox="0 0 42 42" width="42" height="42">
	<title>New Project2</title>
	<defs>
		<filter x="-50%" y="-50%" width="200%" height="200%" id="f1" ><feDropShadow dx="-1.8369701987210297e-16" dy="3" stdDeviation="2.916666666666667" flood-color="#000000" flood-opacity=".2"/></filter>
	</defs>
	<style>
		.s0 { filter: url(#f1);fill: #d6e6de } 
		.s1 { fill: #32835b } 
	</style>
	<g id="Performance_icon">
		<circle id="Ellipse 89" class="s0" cx="21" cy="21" r="21"/>
		<g id="Group 4175">
			<path id="Path 6311" fill-rule="evenodd" class="s1" d="m26.6 23.8q0.2 0.2 0.6 0.2h1.3c-0.2 1.7-0.9 3.3-2.1 4.5-1.2 1.2-2.8 2-4.5 2.2v-1.4c0-0.3-0.2-0.6-0.5-0.7-0.2-0.2-0.6-0.2-0.8 0-0.3 0.1-0.5 0.4-0.5 0.7v1.4c-1.7-0.2-3.3-1-4.5-2.2-1.2-1.2-1.9-2.8-2.1-4.5h1.3q0.4 0 0.6-0.2 0.3-0.3 0.3-0.7 0-0.3-0.3-0.6-0.2-0.2-0.6-0.2h-1.3c0.3-2.5 1.7-4.7 4-5.9 2.2-1.1 4.8-1.1 7 0 2.2 1.2 3.7 3.4 4 5.9h-1.3q-0.4 0-0.6 0.2-0.3 0.3-0.3 0.6 0 0.4 0.3 0.7zm-4.4 0.1c0.3-0.4 0.3-0.9 0.1-1.3-0.2-0.5-0.6-0.8-1.1-0.9l-2.3-3c-0.1-0.3-0.5-0.3-0.7-0.2-0.3 0.2-0.4 0.5-0.3 0.8l1.7 3.4c-0.1 0.4 0 0.9 0.2 1.3 0.3 0.4 0.7 0.6 1.2 0.6 0.5 0 0.9-0.3 1.2-0.7z"/>
			<path id="Path 6312" fill-rule="evenodd" class="s1" d="m29.9 15.6c2 2.3 2.9 5.2 2.8 8.2-0.2 3-1.5 5.8-3.7 7.8-2.1 2.1-5 3.2-8 3.2-3 0-5.9-1.1-8-3.2-2.2-2-3.5-4.8-3.7-7.8-0.1-3 0.8-5.9 2.8-8.2 1.9-2.3 4.7-3.8 7.6-4.1v-2h-0.8c-0.3 0-0.6-0.2-0.8-0.4-0.2-0.2-0.3-0.5-0.3-0.8 0-0.3 0.1-0.6 0.3-0.8 0.2-0.2 0.5-0.3 0.8-0.3h4.2c0.4 0 0.8 0.2 1 0.5 0.2 0.4 0.2 0.8 0 1.2-0.2 0.3-0.6 0.6-1 0.6h-0.8v2c3 0.3 5.7 1.8 7.6 4.1zm-2 14.4c1.8-1.8 2.8-4.3 2.9-6.9 0-2.5-1.1-5-2.9-6.9-1.8-1.8-4.3-2.8-6.9-2.8-2.6 0-5.1 1-6.9 2.8-1.8 1.9-2.9 4.4-2.9 6.9 0 2.6 1.1 5.1 2.9 6.9 1.8 1.9 4.3 2.9 6.9 2.9 2.6 0 5.1-1 6.9-2.9z"/>
		</g>
	</g>
</svg>